# Blender 3.4.1
# www.blender.org
o Plane
v -0.500000 0.000000 -0.500000
v 0.500000 0.000000 -0.500000
v -0.500000 0.500000 -0.500000
v 0.500000 0.500000 -0.500000
v 0.000000 0.500000 -0.500000
v 0.000000 0.000000 -0.500000
vn -0.0000 -0.0000 1.0000
vt 0.250569 0.874802
vt 0.374702 0.875097
vt 0.250569 0.999662
vt 0.374702 0.999551
vt 0.250584 0.999551
vt 0.374545 0.999662
vt 0.250584 0.875097
vt 0.374545 0.874802
s 0
f 6/7/1 4/4/1 5/5/1
f 1/1/1 5/6/1 3/3/1
f 6/7/1 2/2/1 4/4/1
f 1/1/1 6/8/1 5/6/1
