# Blender 4.0.2
# www.blender.org
o Door
v -0.000000 0.000000 -0.010373
v -0.000000 0.388769 -0.010373
v 0.220482 0.000000 -0.010373
v 0.220482 0.388769 -0.010373
v 0.220482 0.388769 0.010373
v -0.000000 0.388769 0.010373
v -0.000000 0.000000 0.010373
v 0.220482 0.000000 0.010373
vn -0.0000 -0.0000 -1.0000
vn 1.0000 -0.0000 -0.0000
vn -0.0000 -1.0000 -0.0000
vn -0.0000 1.0000 -0.0000
vn -1.0000 -0.0000 -0.0000
vn -0.0000 -0.0000 1.0000
vt 0.613006 0.875791
vt 0.562770 0.992432
vt 0.613006 0.992432
vt 0.562458 0.974212
vt 0.557162 0.901122
vt 0.562458 0.901122
vt 0.562770 0.875791
vt 0.562408 0.900896
vt 0.557086 0.974349
vt 0.557086 0.900896
vt 0.557162 0.974212
vt 0.562408 0.974349
s 0
f 3/1/1 2/2/1 4/3/1
f 4/4/2 8/5/2 3/6/2
f 3/1/3 7/7/3 1/7/3
f 2/2/4 5/3/4 4/3/4
f 7/8/5 2/9/5 1/10/5
f 6/2/6 8/1/6 5/3/6
f 3/1/1 1/7/1 2/2/1
f 4/4/2 5/11/2 8/5/2
f 3/1/3 8/1/3 7/7/3
f 2/2/4 6/2/4 5/3/4
f 7/8/5 6/12/5 2/9/5
f 6/2/6 7/7/6 8/1/6
