# Blender 4.0.2
# www.blender.org
o Hole
v -0.500000 -0.000000 0.500000
v 0.500000 -0.000000 0.500000
v -0.500000 0.000000 -0.500000
v 0.500000 0.000000 -0.500000
v -0.500000 -0.154356 -0.500000
v 0.500000 -0.154356 -0.500000
v -0.500000 -0.154356 0.500000
v 0.500000 -0.154356 0.500000
v 0.000000 0.000000 -0.500000
v 0.000000 -0.000000 0.500000
v 0.500000 0.000000 0.000000
v -0.500000 0.000000 0.000000
v 0.250000 0.000000 -0.500000
v 0.250000 -0.000000 0.500000
v 0.500000 0.000000 -0.250000
v -0.500000 0.000000 -0.250000
v -0.250000 0.000000 -0.500000
v -0.250000 -0.000000 0.500000
v 0.500000 -0.000000 0.250000
v -0.500000 -0.000000 0.250000
v 0.400000 0.017109 0.000416
v -0.379085 0.017109 -0.025360
v -0.000036 0.017109 -0.390750
v -0.000036 0.017109 0.396976
v -0.344184 0.017109 0.350670
v -0.346525 0.017109 -0.366467
v 0.294609 0.017109 -0.402190
v 0.359656 0.017109 0.337069
v 0.375000 0.000000 -0.500000
v 0.375000 -0.000000 0.500000
v 0.500000 0.000000 -0.375000
v -0.500000 0.000000 -0.375000
v -0.125000 0.000000 -0.500000
v -0.125000 -0.000000 0.500000
v 0.500000 -0.000000 0.125000
v -0.500000 -0.000000 0.125000
v 0.441931 -0.000000 0.000416
v -0.000036 0.000000 -0.441551
v 0.125000 0.000000 -0.500000
v 0.125000 -0.000000 0.500000
v 0.500000 0.000000 -0.125000
v -0.500000 0.000000 -0.125000
v -0.375000 0.000000 -0.500000
v -0.375000 -0.000000 0.500000
v 0.500000 -0.000000 0.375000
v -0.500000 -0.000000 0.375000
v -0.442003 -0.000000 0.000416
v -0.000036 -0.000000 0.442383
v -0.147358 0.017109 0.406620
v -0.442003 -0.000000 0.295061
v -0.386630 0.017109 0.199047
v -0.294681 -0.000000 0.442383
v -0.147358 0.017109 -0.405032
v -0.442003 0.000000 -0.294229
v -0.294681 0.000000 -0.441551
v -0.372092 0.017109 -0.240268
v 0.441931 0.000000 -0.294229
v 0.147286 0.017109 -0.409524
v 0.294609 0.000000 -0.441551
v 0.409218 0.017109 -0.146906
v 0.441931 -0.000000 0.295061
v 0.147286 0.017109 0.411047
v 0.374183 0.017109 0.181448
v 0.294609 -0.000000 0.442383
v 0.147286 -0.000000 0.442383
v 0.441931 -0.000000 0.147739
v 0.147286 0.000000 -0.441551
v 0.441931 0.000000 -0.441551
v -0.442003 0.000000 -0.146906
v -0.442003 0.000000 -0.441551
v -0.147358 0.000000 -0.441551
v -0.442003 -0.000000 0.442383
v -0.442003 -0.000000 0.147739
v -0.147358 -0.000000 0.442383
v 0.441931 0.000000 -0.146906
v 0.441931 -0.000000 0.442383
v 0.399441 -2.400000 0.006867
v -0.379643 -2.400000 -0.018910
v -0.000594 -2.400000 -0.384300
v -0.000594 -2.400000 0.403426
v -0.344743 -2.400000 0.357121
v -0.347084 -2.400000 -0.360017
v 0.294050 -2.400000 -0.395740
v 0.359098 -2.400000 0.343519
v -0.147917 -2.400000 0.413070
v -0.387188 -2.400000 0.205497
v -0.147917 -2.400000 -0.398581
v -0.372650 -2.400000 -0.233818
v 0.146728 -2.400000 -0.403074
v 0.408660 -2.400000 -0.140456
v 0.146728 -2.400000 0.417498
v 0.373625 -2.400000 0.187898
v -0.379165 -0.330737 -0.024432
v -0.386710 -0.330737 0.199975
v 0.399920 -0.330737 0.001344
v 0.409138 -0.330737 -0.145978
v -0.147439 -0.330737 -0.404104
v -0.346606 -0.330737 -0.365539
v 0.294528 -0.330737 -0.401262
v -0.000116 -0.330737 -0.389822
v -0.000116 -0.330737 0.397904
v 0.147206 -0.330737 0.411975
v 0.359576 -0.330737 0.337997
v 0.374103 -0.330737 0.182376
v -0.372172 -0.330737 -0.239340
v -0.344264 -0.330737 0.351599
v -0.147439 -0.330737 0.407548
v 0.147206 -0.330737 -0.408596
vn 1.0000 -0.0000 -0.0000
vn -0.0000 -0.0000 1.0000
vn -1.0000 -0.0000 -0.0000
vn -0.0000 -0.0000 -1.0000
vn -0.0000 1.0000 -0.0000
vn -0.2952 0.9554 -0.0000
vn -0.0000 0.9056 -0.4242
vn -0.0000 0.9750 -0.2222
vn -0.2478 0.9688 -0.0081
vn -0.0000 0.8820 -0.4712
vn 0.0704 0.9768 0.2022
vn -0.0337 0.9353 0.3524
vn 0.3778 0.9259 -0.0000
vn 0.2448 0.9696 -0.0000
vn -0.0000 0.9171 -0.3986
vn -0.2069 0.9775 -0.0419
vn -0.1723 0.9850 -0.0000
vn -0.2624 0.9650 -0.0000
vn 0.0231 0.9355 0.3525
vn -0.0611 0.9747 0.2148
vn 0.1700 0.9825 -0.0763
vn 0.4634 0.8861 -0.0000
vn 0.2036 0.9791 -0.0000
vn 0.9994 -0.0001 0.0336
vn -0.9980 0.0001 -0.0625
vn 0.1901 0.0026 0.9818
vn -0.9123 0.0013 0.4096
vn -0.0965 0.0027 0.9953
vn 0.0951 -0.0027 -0.9955
vn -0.9957 -0.0000 -0.0929
vn -0.3290 -0.0024 -0.9443
vn 0.9995 -0.0001 0.0325
vn 0.2734 -0.0026 -0.9619
vn -0.9900 -0.0001 -0.1412
vn 0.9801 0.0003 0.1986
vn -0.0653 -0.0026 -0.9979
vn 0.1264 0.0026 0.9920
vn 0.9630 -0.0009 -0.2696
vn -0.0497 0.0027 0.9988
vn -0.2033 0.9775 0.0569
vn 0.0309 0.9472 -0.3190
vn -0.1764 0.9843 -0.0000
vn 0.0198 0.9169 -0.3986
vn -0.0000 0.8777 0.4792
vn 0.2621 0.9643 0.0374
vn 0.2133 0.9768 0.0199
vn -0.0406 0.9469 -0.3189
vn 0.1154 0.9933 -0.0000
vn -0.2377 0.9713 -0.0000
vn -0.0492 0.9659 -0.2541
vn -0.0000 0.9830 0.1834
vn -0.2870 0.9579 -0.0096
vn -0.0000 0.9021 0.4315
vn 0.3777 0.9256 0.0236
vn -0.0000 0.9871 0.1604
vt 0.001224 0.813375
vt 0.039131 0.874242
vt 0.031550 0.874242
vt 0.000785 0.812857
vt 0.039241 0.874760
vt 0.031550 0.874760
vt 0.001242 0.813446
vt 0.038966 0.874170
vt 0.031421 0.874170
vt 0.000958 0.813237
vt 0.039037 0.874379
vt 0.031421 0.874379
vt 0.117125 0.882830
vt 0.124313 0.875698
vt 0.124313 0.891172
vt 0.117125 0.937539
vt 0.124313 0.953064
vt 0.117125 0.955775
vt 0.046947 0.875698
vt 0.062416 0.882830
vt 0.044180 0.882830
vt 0.007707 0.901067
vt 0.014561 0.912952
vt 0.007707 0.919303
vt 0.016001 0.875698
vt 0.025943 0.882830
vt 0.007707 0.882830
vt 0.044180 0.987728
vt 0.062416 0.992248
vt 0.044180 0.992248
vt 0.007707 0.992248
vt 0.019526 0.982954
vt 0.025943 0.992248
vt 0.007707 0.955775
vt 0.015495 0.940730
vt 0.016361 0.967332
vt 0.117125 0.974012
vt 0.124313 0.984010
vt 0.117125 0.992248
vt 0.080652 0.988284
vt 0.098888 0.992248
vt 0.080652 0.992248
vt 0.117125 0.919303
vt 0.124313 0.906645
vt 0.124313 0.922118
vt 0.080652 0.882830
vt 0.093366 0.875698
vt 0.098888 0.882830
vt 0.080652 0.886710
vt 0.106940 0.895867
vt 0.062416 0.888451
vt 0.077893 0.875698
vt 0.124313 0.937591
vt 0.111934 0.937539
vt 0.108738 0.915130
vt 0.117125 0.901067
vt 0.093366 0.999483
vt 0.077893 0.999483
vt 0.062420 0.999483
vt 0.124313 0.999483
vt 0.108840 0.999483
vt 0.098888 0.987376
vt 0.007707 0.974012
vt 0.000528 0.968537
vt 0.000528 0.953064
vt 0.007707 0.937539
vt 0.016001 0.999483
vt 0.031474 0.999483
vt 0.000528 0.999483
vt 0.000528 0.984010
vt 0.046947 0.999483
vt 0.019816 0.894183
vt 0.000528 0.891172
vt 0.000528 0.906645
vt 0.000528 0.875698
vt 0.000528 0.922118
vt 0.000528 0.937591
vt 0.044180 0.887258
vt 0.031474 0.875698
vt 0.124313 0.968537
vt 0.113075 0.955775
vt 0.108840 0.875698
vt 0.127204 0.733399
vt 0.125490 0.734837
vt 0.125500 0.733283
vt 0.125093 0.739155
vt 0.124852 0.737285
vt 0.125318 0.737304
vt 0.122900 0.733269
vt 0.124215 0.735448
vt 0.122464 0.734747
vt 0.123987 0.739109
vt 0.124085 0.736842
vt 0.122465 0.735867
vt 0.124214 0.735918
vt 0.128368 0.737592
vt 0.126700 0.736174
vt 0.128384 0.736476
vt 0.127641 0.739117
vt 0.125897 0.737282
vt 0.126392 0.737287
vt 0.126695 0.736643
vt 0.124808 0.734790
vt 0.123871 0.733171
vt 0.128578 0.735373
vt 0.126669 0.735070
vt 0.128318 0.733839
vt 0.126465 0.739104
vt 0.124400 0.734830
vt 0.126780 0.735711
vt 0.124108 0.736377
vt 0.122218 0.736956
vt 0.126203 0.734886
vt 0.122167 0.738060
vt 0.282064 0.856143
vt 0.331798 0.730122
vt 0.332004 0.856143
vt 0.836780 0.856143
vt 0.889889 0.730122
vt 0.890095 0.856143
vt 0.231777 0.856143
vt 0.281858 0.730122
vt 0.767496 0.856143
vt 0.717310 0.730122
vt 0.767290 0.730122
vt 0.069375 0.856143
vt 0.112769 0.730122
vt 0.112975 0.856143
vt 0.538435 0.856143
vt 0.476382 0.730122
vt 0.538229 0.730122
vt 0.836574 0.730122
vt 0.002659 0.856143
vt 0.069169 0.730122
vt 0.667412 0.856143
vt 0.591091 0.730122
vt 0.667205 0.730122
vt 0.591297 0.856143
vt 0.717516 0.856143
vt 0.181460 0.730122
vt 0.231571 0.730122
vt 0.426665 0.856143
vt 0.426458 0.730122
vt 0.181666 0.856143
vt 0.476588 0.856143
vt 0.965918 0.730122
vt 0.966125 0.856143
vt 0.008805 0.874242
vt 0.001224 0.874242
vt 0.061876 0.813375
vt 0.061876 0.874242
vt 0.054294 0.874242
vt 0.016387 0.874242
vt 0.023968 0.874242
vt 0.046713 0.874242
vt 0.008476 0.874760
vt 0.000785 0.874760
vt 0.062315 0.812857
vt 0.062315 0.874760
vt 0.054624 0.874760
vt 0.016167 0.874760
vt 0.023859 0.874760
vt 0.046932 0.874760
vt 0.008787 0.874170
vt 0.001242 0.874170
vt 0.061600 0.813446
vt 0.061600 0.874170
vt 0.054056 0.874170
vt 0.016332 0.874170
vt 0.023876 0.874170
vt 0.046511 0.874170
vt 0.008574 0.874379
vt 0.000958 0.874379
vt 0.061884 0.813237
vt 0.061884 0.874379
vt 0.054268 0.874379
vt 0.016189 0.874379
vt 0.023805 0.874379
vt 0.046652 0.874379
vt 0.062420 0.875698
vt 0.062416 0.985960
vt 0.002453 0.730122
s 0
f 8/1/1 41/2/1 11/3/1
f 7/4/2 40/5/2 10/6/2
f 5/7/3 36/8/3 12/9/3
f 6/10/4 33/11/4 9/12/4
f 76/13/5 2/14/5 45/15/5
f 37/16/5 41/17/5 75/18/5
f 34/19/5 48/20/5 74/21/5
f 50/22/6 51/23/6 73/24/6
f 44/25/5 52/26/5 72/27/5
f 53/28/7 38/29/7 71/30/7
f 70/31/8 26/32/8 55/33/8
f 69/34/9 22/35/9 56/36/9
f 57/37/5 31/38/5 68/39/5
f 58/40/10 59/41/10 67/42/10
f 66/43/5 19/44/5 35/45/5
f 65/46/5 14/47/5 64/48/5
f 62/49/11 64/48/11 28/50/11
f 48/20/12 62/49/12 24/51/12
f 48/20/5 40/52/5 65/46/5
f 37/16/5 35/45/5 11/53/5
f 21/54/13 66/43/13 37/16/13
f 63/55/14 61/56/14 66/43/14
f 67/42/5 13/57/5 39/58/5
f 38/29/5 39/58/5 9/59/5
f 38/29/10 58/40/10 67/42/10
f 68/39/5 4/60/5 29/61/5
f 59/41/5 29/61/5 13/57/5
f 27/62/15 68/39/15 59/41/15
f 54/63/16 56/36/16 26/32/16
f 16/64/5 69/34/5 54/63/5
f 42/65/5 47/66/5 69/34/5
f 43/67/5 55/33/5 17/68/5
f 3/69/5 70/31/5 43/67/5
f 32/70/5 54/63/5 70/31/5
f 33/71/5 38/29/5 9/59/5
f 17/68/5 71/30/5 33/71/5
f 55/33/7 53/28/7 71/30/7
f 72/27/17 25/72/17 50/22/17
f 46/73/5 50/22/5 20/74/5
f 1/75/5 72/27/5 46/73/5
f 73/24/18 22/35/18 47/66/18
f 36/76/5 47/66/5 12/77/5
f 20/74/5 73/24/5 36/76/5
f 49/78/19 48/20/19 24/51/19
f 52/26/20 49/78/20 25/72/20
f 18/79/5 74/21/5 52/26/5
f 75/18/5 15/80/5 57/37/5
f 60/81/21 57/37/21 27/62/21
f 60/81/22 37/16/22 75/18/22
f 61/56/5 45/15/5 19/44/5
f 28/50/23 76/13/23 61/56/23
f 64/48/5 30/82/5 76/13/5
f 94/83/24 78/84/24 93/85/24
f 95/86/25 90/87/25 77/88/25
f 98/89/26 87/90/26 97/91/26
f 96/92/27 83/93/27 90/87/27
f 100/94/28 87/90/28 79/95/28
f 102/96/29 80/97/29 101/98/29
f 103/99/30 92/100/30 84/101/30
f 102/96/31 84/101/31 91/102/31
f 93/85/32 88/103/32 105/104/32
f 107/105/33 81/106/33 106/107/33
f 104/108/34 77/88/34 92/100/34
f 105/104/35 82/109/35 98/89/35
f 107/105/36 80/97/36 85/110/36
f 100/94/37 89/111/37 108/112/37
f 106/107/38 86/113/38 94/83/38
f 108/112/39 83/93/39 99/114/39
f 58/115/39 99/116/39 27/117/39
f 25/118/38 94/119/38 51/120/38
f 23/121/37 108/122/37 58/115/37
f 49/123/36 101/124/36 107/125/36
f 56/126/35 98/127/35 26/128/35
f 63/129/34 95/130/34 104/131/34
f 49/123/33 106/132/33 25/118/33
f 22/133/32 105/134/32 56/126/32
f 62/135/31 103/136/31 102/137/31
f 28/138/30 104/131/30 103/136/30
f 62/135/29 101/124/29 24/139/29
f 23/121/28 97/140/28 100/141/28
f 60/142/27 99/116/27 96/143/27
f 26/128/26 97/140/26 53/144/26
f 21/145/25 96/143/25 95/130/25
f 51/120/24 93/146/24 22/147/24
f 45/148/1 2/149/1 8/1/1
f 8/1/1 6/150/1 4/151/1
f 8/1/1 4/151/1 31/152/1
f 19/153/1 45/148/1 8/1/1
f 35/154/1 19/153/1 8/1/1
f 8/1/1 31/152/1 15/155/1
f 8/1/1 15/155/1 41/2/1
f 11/3/1 35/154/1 8/1/1
f 44/156/2 1/157/2 7/4/2
f 7/4/2 8/158/2 2/159/2
f 7/4/2 2/159/2 30/160/2
f 18/161/2 44/156/2 7/4/2
f 34/162/2 18/161/2 7/4/2
f 7/4/2 30/160/2 14/163/2
f 7/4/2 14/163/2 40/5/2
f 10/6/2 34/162/2 7/4/2
f 32/164/3 3/165/3 5/7/3
f 5/7/3 7/166/3 1/167/3
f 5/7/3 1/167/3 46/168/3
f 16/169/3 32/164/3 5/7/3
f 42/170/3 16/169/3 5/7/3
f 5/7/3 46/168/3 20/171/3
f 5/7/3 20/171/3 36/8/3
f 12/9/3 42/170/3 5/7/3
f 29/172/4 4/173/4 6/10/4
f 6/10/4 5/174/4 3/175/4
f 6/10/4 3/175/4 43/176/4
f 13/177/4 29/172/4 6/10/4
f 39/178/4 13/177/4 6/10/4
f 6/10/4 43/176/4 17/179/4
f 6/10/4 17/179/4 33/11/4
f 9/12/4 39/178/4 6/10/4
f 76/13/5 30/82/5 2/14/5
f 37/16/5 11/53/5 41/17/5
f 34/19/5 10/180/5 48/20/5
f 50/22/40 25/72/40 51/23/40
f 44/25/5 18/79/5 52/26/5
f 53/28/41 23/181/41 38/29/41
f 70/31/42 54/63/42 26/32/42
f 69/34/18 47/66/18 22/35/18
f 57/37/5 15/80/5 31/38/5
f 58/40/43 27/62/43 59/41/43
f 66/43/5 61/56/5 19/44/5
f 65/46/5 40/52/5 14/47/5
f 62/49/44 65/46/44 64/48/44
f 48/20/44 65/46/44 62/49/44
f 48/20/5 10/180/5 40/52/5
f 37/16/5 66/43/5 35/45/5
f 21/54/45 63/55/45 66/43/45
f 63/55/46 28/50/46 61/56/46
f 67/42/5 59/41/5 13/57/5
f 38/29/5 67/42/5 39/58/5
f 38/29/47 23/181/47 58/40/47
f 68/39/5 31/38/5 4/60/5
f 59/41/5 68/39/5 29/61/5
f 27/62/48 57/37/48 68/39/48
f 54/63/49 69/34/49 56/36/49
f 16/64/5 42/65/5 69/34/5
f 42/65/5 12/77/5 47/66/5
f 43/67/5 70/31/5 55/33/5
f 3/69/5 32/70/5 70/31/5
f 32/70/5 16/64/5 54/63/5
f 33/71/5 71/30/5 38/29/5
f 17/68/5 55/33/5 71/30/5
f 55/33/50 26/32/50 53/28/50
f 72/27/51 52/26/51 25/72/51
f 46/73/5 72/27/5 50/22/5
f 1/75/5 44/25/5 72/27/5
f 73/24/52 51/23/52 22/35/52
f 36/76/5 73/24/5 47/66/5
f 20/74/5 50/22/5 73/24/5
f 49/78/53 74/21/53 48/20/53
f 52/26/53 74/21/53 49/78/53
f 18/79/5 34/19/5 74/21/5
f 75/18/5 41/17/5 15/80/5
f 60/81/22 75/18/22 57/37/22
f 60/81/54 21/54/54 37/16/54
f 61/56/5 76/13/5 45/15/5
f 28/50/55 64/48/55 76/13/55
f 64/48/5 14/47/5 30/82/5
f 94/83/24 86/113/24 78/84/24
f 95/86/25 96/92/25 90/87/25
f 98/89/26 82/109/26 87/90/26
f 96/92/27 99/114/27 83/93/27
f 100/94/28 97/91/28 87/90/28
f 102/96/29 91/102/29 80/97/29
f 103/99/30 104/108/30 92/100/30
f 102/96/31 103/99/31 84/101/31
f 93/85/32 78/84/32 88/103/32
f 107/105/33 85/110/33 81/106/33
f 104/108/34 95/86/34 77/88/34
f 105/104/35 88/103/35 82/109/35
f 107/105/36 101/98/36 80/97/36
f 100/94/37 79/95/37 89/111/37
f 106/107/38 81/106/38 86/113/38
f 108/112/39 89/111/39 83/93/39
f 58/115/39 108/122/39 99/116/39
f 25/118/38 106/132/38 94/119/38
f 23/121/37 100/141/37 108/122/37
f 49/123/36 24/139/36 101/124/36
f 56/126/35 105/134/35 98/127/35
f 63/129/34 21/145/34 95/130/34
f 49/123/33 107/125/33 106/132/33
f 22/133/32 93/182/32 105/134/32
f 62/135/31 28/138/31 103/136/31
f 28/138/30 63/129/30 104/131/30
f 62/135/29 102/137/29 101/124/29
f 23/121/28 53/144/28 97/140/28
f 60/142/27 27/117/27 99/116/27
f 26/128/26 98/127/26 97/140/26
f 21/145/25 60/142/25 96/143/25
f 51/120/24 94/119/24 93/146/24
