# Blender 4.0.2
# www.blender.org
o Wall
v -0.500000 0.000441 -0.476073
v -0.500000 0.048001 -0.476073
v -0.500000 0.048001 -0.535658
v 0.500000 0.000441 -0.476073
v 0.500000 0.048001 -0.476073
v 0.500000 0.048001 -0.535658
v -0.500000 0.000000 -0.500000
v 0.500000 0.000000 -0.500000
v -0.500000 0.500000 -0.500000
v 0.500000 0.500000 -0.500000
v 0.000000 0.500000 -0.500000
v 0.000000 0.000000 -0.500000
v -0.500000 0.479172 -0.517428
v -0.500000 0.479172 -0.485188
v -0.500000 0.510708 -0.485188
v 0.500000 0.479172 -0.517428
v 0.500000 0.479172 -0.485188
v 0.500000 0.510708 -0.485188
v -0.500000 -0.152710 -0.500000
v 0.500000 -0.152710 -0.500000
v 0.000000 -0.152710 -0.500000
vn -0.0000 -0.0000 1.0000
vn -0.0000 1.0000 -0.0000
vn -0.0000 -1.0000 -0.0000
vt 0.493331 0.999639
vt 0.405350 0.875361
vt 0.493331 0.875361
vt 0.375492 0.999325
vt 0.499383 0.875434
vt 0.499383 0.999325
vt 0.250584 0.875097
vt 0.374702 0.999551
vt 0.250584 0.999551
vt 0.250569 0.874802
vt 0.374545 0.999662
vt 0.250569 0.999662
vt 0.374702 0.875097
vt 0.374545 0.874802
vt 0.001011 0.874760
vt 0.031427 0.813279
vt 0.031427 0.874760
vt 0.061844 0.813279
vt 0.061844 0.874760
vt 0.405350 0.999639
vt 0.375492 0.875434
vt 0.001011 0.813279
s 0
f 5/1/1 1/2/1 4/3/1
f 3/4/2 5/5/2 6/6/2
f 12/7/1 10/8/1 11/9/1
f 7/10/1 11/11/1 9/12/1
f 12/7/1 8/13/1 10/8/1
f 7/10/1 12/14/1 11/11/1
f 17/1/3 13/2/3 16/3/3
f 15/4/1 17/5/1 18/6/1
f 7/15/1 21/16/1 12/17/1
f 12/17/1 20/18/1 8/19/1
f 5/1/1 2/20/1 1/2/1
f 3/4/2 2/21/2 5/5/2
f 17/1/3 14/20/3 13/2/3
f 15/4/1 14/21/1 17/5/1
f 7/15/1 19/22/1 21/16/1
f 12/17/1 21/16/1 20/18/1
