# Blender 3.4.1
# www.blender.org
o WallJoint
v -0.426179 0.000000 -0.573821
v -0.573821 0.000000 -0.573821
v -0.426179 -0.000000 -0.426179
v -0.573821 -0.000000 -0.426179
v -0.426179 0.048879 -0.426179
v -0.573821 0.048879 -0.426179
v -0.573821 0.048879 -0.573821
v -0.426179 0.048879 -0.573821
v -0.449898 0.054913 -0.449898
v -0.550102 0.054913 -0.550102
v -0.550102 0.054913 -0.449898
v -0.449898 0.054913 -0.550102
v -0.426179 0.510582 -0.426179
v -0.573820 0.510582 -0.426179
v -0.426179 0.510582 -0.573821
v -0.573820 0.510582 -0.573821
v -0.426179 0.461703 -0.573821
v -0.573820 0.461703 -0.573821
v -0.573820 0.461703 -0.426179
v -0.426179 0.461703 -0.426179
v -0.449898 0.455669 -0.550102
v -0.550102 0.455669 -0.449898
v -0.550102 0.455669 -0.550102
v -0.449898 0.455669 -0.449898
vn -1.0000 -0.0000 -0.0000
vn -0.0000 -0.0000 1.0000
vn -0.0000 -0.0000 -1.0000
vn 1.0000 -0.0000 -0.0000
vn 0.2465 0.9691 -0.0000
vn -0.2465 0.9691 -0.0000
vn -0.0000 0.9691 -0.2465
vn -0.0000 0.9691 0.2465
vn 0.2465 -0.9691 -0.0000
vn -0.2465 -0.9691 -0.0000
vn -0.0000 -0.9691 0.2465
vn -0.0000 -0.9691 -0.2465
vt 0.440092 0.880407
vt 0.470865 0.882108
vt 0.404584 0.881184
vt 0.377969 0.882698
vt 0.495766 0.882698
vt 0.405398 0.882038
vt 0.378187 0.883575
vt 0.495983 0.883575
vt 0.470250 0.882969
vt 0.439644 0.881281
vt 0.404770 0.881357
vt 0.470728 0.882283
vt 0.495814 0.882876
vt 0.378017 0.882876
vt 0.439987 0.880585
vt 0.410356 0.996952
vt 0.497380 0.998563
vt 0.379583 0.998563
vt 0.435257 0.996394
vt 0.461872 0.997828
vt 0.435475 0.995564
vt 0.462686 0.997019
vt 0.496932 0.997736
vt 0.379136 0.997736
vt 0.409742 0.996138
vt 0.435305 0.996225
vt 0.497275 0.998395
vt 0.379478 0.998395
vt 0.462057 0.997664
vt 0.410219 0.996787
s 0
f 22/27/1 10/12/1 11/13/1
f 22/28/2 9/11/2 24/30/2
f 21/26/3 10/12/3 23/29/3
f 1/1/4 5/6/4 3/3/4
f 4/5/1 7/9/1 2/2/1
f 2/2/3 8/10/3 1/1/3
f 3/3/2 6/7/2 4/4/2
f 8/10/5 9/11/5 5/6/5
f 6/8/6 10/12/6 7/9/6
f 7/9/7 12/15/7 8/10/7
f 5/6/8 11/14/8 6/7/8
f 13/16/4 17/21/4 15/19/4
f 16/20/1 19/23/1 14/17/1
f 14/18/2 20/25/2 13/16/2
f 15/19/3 18/22/3 16/20/3
f 20/25/9 21/26/9 17/21/9
f 18/22/10 22/27/10 19/23/10
f 19/24/11 24/30/11 20/25/11
f 17/21/12 23/29/12 18/22/12
f 24/30/4 12/15/4 21/26/4
f 22/27/1 23/29/1 10/12/1
f 22/28/2 11/14/2 9/11/2
f 21/26/3 12/15/3 10/12/3
f 1/1/4 8/10/4 5/6/4
f 4/5/1 6/8/1 7/9/1
f 2/2/3 7/9/3 8/10/3
f 3/3/2 5/6/2 6/7/2
f 8/10/5 12/15/5 9/11/5
f 6/8/6 11/13/6 10/12/6
f 7/9/7 10/12/7 12/15/7
f 5/6/8 9/11/8 11/14/8
f 13/16/4 20/25/4 17/21/4
f 16/20/1 18/22/1 19/23/1
f 14/18/2 19/24/2 20/25/2
f 15/19/3 17/21/3 18/22/3
f 20/25/9 24/30/9 21/26/9
f 18/22/10 23/29/10 22/27/10
f 19/24/11 22/28/11 24/30/11
f 17/21/12 21/26/12 23/29/12
f 24/30/4 9/11/4 12/15/4
